<svg width="18" height="18" viewBox="0 0 18 18" fill="none" xmlns="http://www.w3.org/2000/svg">
<path d="M12.6926 10.8742L11.0803 12.5254C10.7815 12.823 10.3165 12.8627 9.97285 12.6213C9.05617 11.975 8.19814 11.2479 7.40884 10.4486L7.40746 10.4472C6.69937 9.73569 6.04745 8.9685 5.45875 8.15381C5.20507 7.80389 5.24401 7.31905 5.54871 7.01517L5.55064 7.01323L7.2228 5.32714L7.22354 5.32638C7.66677 4.87756 7.66488 4.15272 7.21999 3.70563L4.37802 0.839976L4.37667 0.83859L4.3744 0.83631C3.92763 0.387732 3.20099 0.387697 2.75469 0.839239L1.85605 1.74537C0.629753 2.96282 0.191408 4.77258 0.721409 6.42121L0.722535 6.42463C1.14918 7.71967 1.75158 8.94898 2.51271 10.0776C3.20328 11.118 3.99495 12.0866 4.87617 12.9688C5.83406 13.9404 6.89499 14.8029 8.0398 15.5409C9.28429 16.3647 10.6516 16.9827 12.09 17.3709L12.1033 17.3741C13.6646 17.7499 15.3461 17.193 16.453 16.0659L17.1595 15.3786L17.1678 15.3702L17.1686 15.3695C17.3869 15.1483 17.4148 14.8629 17.4014 14.668C17.385 14.4285 17.3001 14.1895 17.207 13.9985C17.1142 13.808 16.9894 13.6162 16.8518 13.4774L14.3177 10.8727L14.3136 10.8686C13.866 10.4192 13.1401 10.4208 12.6945 10.8722L12.6926 10.8742Z" fill="#6D103D"/>
</svg>
